<?xml version="1.0" encoding="UTF-8"?><svg id="Layer_2" xmlns="http://www.w3.org/2000/svg" viewBox="0 0 565.69 66.67"><defs><style>.cls-1{fill:#fff;}</style></defs><g id="Layer_1-2"><g><path class="cls-1" d="m24.34,17.78l3.67,7.34-19.3,9.58,19.3,9.36-3.67,7.56L0,39.24v-9.07l24.34-12.38Z"/><path class="cls-1" d="m62.14,8.78l-1.15,8.64h-9.58v41.26h-11.3V17.42h-10.15v-8.64h32.18Z"/><path class="cls-1" d="m91.26,22.18c1.56,1.97,2.34,4.61,2.34,7.92v28.58h-10.87v-27.43c0-2.5-.7-3.74-2.09-3.74s-2.9,1.54-4.54,4.61v26.57h-10.87V5.26l10.87-1.15v20.38c1.2-1.82,2.5-3.16,3.89-4,1.39-.84,3-1.26,4.82-1.26,2.74,0,4.88.98,6.44,2.95Z"/><path class="cls-1" d="m128.66,42.77h-19.44c.24,3.46.88,5.84,1.91,7.16,1.03,1.32,2.53,1.98,4.5,1.98,1.3,0,2.54-.25,3.74-.76s2.5-1.28,3.89-2.34l4.46,5.9c-3.55,3.46-7.85,5.18-12.89,5.18-5.38,0-9.46-1.76-12.24-5.29-2.78-3.53-4.18-8.46-4.18-14.8s1.33-11.35,4-15.05c2.66-3.7,6.47-5.54,11.41-5.54s8.39,1.67,11.05,5c2.66,3.34,4,8.2,4,14.58,0,1.54-.07,2.86-.21,3.96Zm-10.37-7.06c0-3.26-.32-5.63-.97-7.09-.65-1.46-1.79-2.2-3.42-2.2-1.44,0-2.53.71-3.28,2.12-.75,1.42-1.21,3.97-1.4,7.67h9.07v-.5Z"/><path class="cls-1" d="m189.79,58.68h-10.66l-.43-19.8c-.14-4.56-.22-9-.22-13.32,0-3.02.02-5.26.07-6.7l-5.54,34.49h-10.58l-5.83-34.56c.1,2.69.14,6.43.14,11.23,0,3.89-.03,6.89-.07,9l-.43,19.66h-10.58l3.02-49.9h13.97l5.26,34.13,4.75-34.13h14.18l2.95,49.9Z"/><path class="cls-1" d="m221.69,51.19c.29.58.79,1.03,1.51,1.37l-2.23,7.13c-2.06-.19-3.76-.68-5.08-1.48-1.32-.79-2.34-2.03-3.06-3.71-2.21,3.6-5.35,5.4-9.43,5.4-3.17,0-5.69-1.09-7.56-3.28-1.87-2.18-2.81-5.08-2.81-8.68,0-4.18,1.3-7.35,3.89-9.54,2.59-2.18,6.38-3.28,11.38-3.28h2.3v-2.02c0-2.3-.35-3.9-1.04-4.79-.7-.89-1.93-1.33-3.71-1.33-2.21,0-4.94.65-8.21,1.94l-2.45-6.91c1.97-.91,4.07-1.61,6.3-2.09,2.23-.48,4.36-.72,6.37-.72,4.51,0,7.87,1.09,10.08,3.28,2.21,2.19,3.31,5.53,3.31,10.04v15.98c0,1.2.14,2.09.43,2.66Zm-12.74.07c.67-.62,1.22-1.51,1.66-2.66v-7.42h-1.3c-1.97,0-3.4.47-4.28,1.4-.89.94-1.33,2.41-1.33,4.43,0,1.68.26,2.96.79,3.85.53.89,1.27,1.33,2.23,1.33.82,0,1.56-.31,2.23-.94Z"/><path class="cls-1" d="m249.4,19.94l-1.8,10.44c-.86-.29-1.75-.43-2.66-.43-1.78,0-3.11.68-4,2.05-.89,1.37-1.62,3.42-2.2,6.16v20.52h-10.87V20.45h9.43l.79,6.26c1.82-4.9,4.58-7.34,8.28-7.34,1.01,0,2.02.19,3.02.58Z"/><path class="cls-1" d="m281.52,8.78l-1.15,8.64h-9.58v41.26h-11.3V17.42h-10.15v-8.64h32.18Z"/><path class="cls-1" d="m309.52,42.77h-19.44c.24,3.46.88,5.84,1.91,7.16,1.03,1.32,2.53,1.98,4.5,1.98,1.3,0,2.54-.25,3.74-.76,1.2-.5,2.5-1.28,3.89-2.34l4.46,5.9c-3.55,3.46-7.85,5.18-12.89,5.18-5.38,0-9.46-1.76-12.24-5.29-2.78-3.53-4.18-8.46-4.18-14.8s1.33-11.35,4-15.05c2.66-3.7,6.47-5.54,11.41-5.54s8.39,1.67,11.05,5c2.66,3.34,4,8.2,4,14.58,0,1.54-.07,2.86-.22,3.96Zm-10.37-7.06c0-3.26-.32-5.63-.97-7.09-.65-1.46-1.79-2.2-3.42-2.2-1.44,0-2.53.71-3.28,2.12-.75,1.42-1.21,3.97-1.4,7.67h9.07v-.5Z"/><path class="cls-1" d="m335.37,20.38c1.78.77,3.43,1.94,4.97,3.53l-4.46,5.98c-1.97-1.58-3.84-2.38-5.62-2.38-1.97,0-3.43.9-4.39,2.7-.96,1.8-1.44,5-1.44,9.61,0,4.37.5,7.39,1.51,9.07,1.01,1.68,2.42,2.52,4.25,2.52.96,0,1.85-.17,2.66-.5.82-.34,1.75-.91,2.81-1.73l4.68,6.26c-3.12,2.98-6.72,4.46-10.8,4.46-5.18,0-9.22-1.69-12.1-5.08-2.88-3.38-4.32-8.36-4.32-14.94,0-4.27.66-7.96,1.98-11.05,1.32-3.1,3.2-5.47,5.65-7.13,2.45-1.66,5.33-2.48,8.64-2.48,2.21,0,4.2.38,5.98,1.15Z"/><path class="cls-1" d="m369.39,22.18c1.56,1.97,2.34,4.61,2.34,7.92v28.58h-10.87v-27.43c0-2.5-.7-3.74-2.09-3.74s-2.91,1.54-4.54,4.61v26.57h-10.87V5.26l10.87-1.15v20.38c1.2-1.82,2.5-3.16,3.89-4,1.39-.84,3-1.26,4.82-1.26,2.74,0,4.88.98,6.44,2.95Z"/><path class="cls-1" d="m415.04,10.69c3.1,1.27,5.62,3.72,7.56,7.34,1.94,3.62,2.92,8.77,2.92,15.44,0,9.36-1.88,15.9-5.65,19.62-3.77,3.72-8.82,5.58-15.16,5.58h-13.39V8.78h12.6c4.32,0,8.03.64,11.12,1.91Zm-12.42,6.23v33.55h2.74c1.92,0,3.49-.49,4.72-1.48,1.22-.98,2.17-2.71,2.84-5.18.67-2.47,1.01-5.92,1.01-10.33s-.35-7.9-1.04-10.3c-.7-2.4-1.66-4.04-2.88-4.93-1.22-.89-2.77-1.33-4.64-1.33h-2.74Z"/><path class="cls-1" d="m459.64,42.77h-19.44c.24,3.46.88,5.84,1.91,7.16,1.03,1.32,2.53,1.98,4.5,1.98,1.3,0,2.54-.25,3.74-.76,1.2-.5,2.5-1.28,3.89-2.34l4.46,5.9c-3.55,3.46-7.85,5.18-12.89,5.18-5.38,0-9.46-1.76-12.24-5.29-2.78-3.53-4.18-8.46-4.18-14.8s1.33-11.35,4-15.05c2.66-3.7,6.47-5.54,11.41-5.54s8.39,1.67,11.05,5c2.66,3.34,4,8.2,4,14.58,0,1.54-.07,2.86-.22,3.96Zm-10.37-7.06c0-3.26-.32-5.63-.97-7.09-.65-1.46-1.79-2.2-3.42-2.2-1.44,0-2.53.71-3.28,2.12-.75,1.42-1.21,3.97-1.4,7.67h9.07v-.5Z"/><path class="cls-1" d="m492.54,20.45l-9.5,38.23h-12.82l-9.79-38.23h11.09l5.11,29.95,5.4-29.95h10.51Z"/><path class="cls-1" d="m523.43,0l9.22,2.09-14.4,64.58-9.14-2.09L523.43,0Z"/><path class="cls-1" d="m541.36,17.78l24.34,12.38v9.07l-24.34,12.38-3.67-7.56,19.3-9.36-19.3-9.58,3.67-7.34Z"/></g></g></svg>